# xmcd CD database file
#
# Track frame offsets:
#	150
#	34107
#	59077
#	88710
#	113982
#
# Disc length: 1811 seconds
#
# Revision: 1
# Processed by: cddbd v1.4PL0 Copyright (c) Steve Scherf et al.
# Submitted via: CDex 1.50
#
DISCID=41071105
DTITLE=Kiyoshiro meets de-ga-show - Hospital
DYEAR=1997
DGENRE=Jazz
TTITLE0=Sukidabe~Honey Dripper
TTITLE1=Picnic
TTITLE2=Osasa
TTITLE3=Monzenbarai no onna(Hiroaki no Baka)
TTITLE4=Green Pepper
EXTD=YEAR: 1997
EXTT0=
EXTT1=
EXTT2=
EXTT3=
EXTT4=
PLAYORDER=
